<?xml version="1.0" encoding="UTF-8"?>
<svg version="1.1" xmlns="http://www.w3.org/2000/svg" width="96" height="96">
<path d="M0 0 C2.47231854 4.0546024 2.27956309 7.94549171 1.5625 12.5625 C-2.49271393 20.82889763 -10.19629722 25.18317082 -18.4375 28.5625 C-19.19635498 28.63871582 -19.95520996 28.71493164 -20.73706055 28.79345703 C-23.8620015 29.25331258 -25.76881346 29.83355785 -28.4375 31.5625 C-31.6843614 36.79281929 -33.67313996 42.41374571 -35.75 48.1875 C-36.61930789 50.49840409 -37.49939654 52.80494313 -38.38204956 55.11077881 C-38.94826822 56.59258981 -39.50901614 58.07650401 -40.06399536 59.56256104 C-41.8553784 64.29837004 -43.92237299 68.6428366 -46.67651367 72.91162109 C-47.75394209 74.75371825 -47.75394209 74.75371825 -46.4375 77.5625 C-40.8137738 82.02739777 -33.76264979 85.74836201 -26.4375 85.5625 C-18.60636064 83.68269821 -14.53905899 79.11002224 -9.1875 73.3125 C-7.6316729 71.62956284 -6.06447293 69.95704546 -4.484375 68.296875 C-3.80213867 67.55663086 -3.11990234 66.81638672 -2.41699219 66.05371094 C-0.4375 64.5625 -0.4375 64.5625 1.81542969 64.82910156 C2.39196289 65.07112305 2.96849609 65.31314453 3.5625 65.5625 C3.94587394 68.87721006 3.80146165 70.22546111 1.83984375 72.9921875 C1.06769531 73.79914063 0.29554687 74.60609375 -0.5 75.4375 C-1.32628906 76.30503906 -2.15257813 77.17257813 -3.00390625 78.06640625 C-3.80699219 78.89011719 -4.61007813 79.71382813 -5.4375 80.5625 C-6.04464844 81.23152344 -6.65179688 81.90054688 -7.27734375 82.58984375 C-12.94102523 88.67996713 -18.74277024 92.77657637 -27.25 93.1875 C-37.10176981 92.74824912 -45.42384004 87.95630959 -53.4375 82.5625 C-54.00597656 83.10519531 -54.57445312 83.64789063 -55.16015625 84.20703125 C-63.04323233 91.51104999 -68.57450701 93.88414138 -79.3515625 93.9609375 C-82.79843135 93.51589874 -84.66290101 92.62265199 -87.4375 90.5625 C-90.43338982 86.12031854 -91.34304204 81.83295819 -90.4375 76.5625 C-89.06557546 72.67150498 -87.28964113 70.08230609 -83.703125 67.89453125 C-75.74627941 64.64897581 -67.33013846 65.82291619 -59.5625 69.0625 C-57.8422597 69.87096802 -56.12881976 70.69515653 -54.4375 71.5625 C-47.945158 59.21466699 -42.57213642 46.5281741 -37.4375 33.5625 C-38.58605469 33.53671875 -39.73460937 33.5109375 -40.91796875 33.484375 C-64.79095249 32.70845792 -64.79095249 32.70845792 -73.4375 24.5625 C-74.75 20.8125 -74.75 20.8125 -75.4375 17.5625 C-74.4475 16.5725 -73.4575 15.5825 -72.4375 14.5625 C-69.59482684 15.64075534 -68.61075994 16.20686118 -67.25 19 C-64.42523408 22.99363457 -61.13681789 23.6676898 -56.4375 24.5625 C-48.7750109 25.3525264 -41.14206521 25.61252964 -33.4375 25.5625 C-33.23125 24.799375 -33.025 24.03625 -32.8125 23.25 C-28.87744666 12.6969024 -23.66981627 3.7585981 -13.4375 -1.4375 C-8.67063484 -2.96839708 -4.35225816 -2.56671635 0 0 Z M-18.4375 10.5625 C-22.68840155 16.08544102 -22.68840155 16.08544102 -24.4375 22.5625 C-16.02515467 20.0948787 -9.4507398 17.00640152 -4.4375 9.5625 C-4.4781843 6.75764873 -4.4781843 6.75764873 -5.4375 4.5625 C-11.35182443 4.1729951 -14.34125844 6.49021307 -18.4375 10.5625 Z M-82.4375 75.5625 C-84.096096 78.37146063 -84.096096 78.37146063 -84.4375 81.5625 C-83.12882936 84.50700894 -82.34347137 86.10951431 -79.4375 87.5625 C-72.81611162 88.39017355 -67.98149396 86.12993959 -62.4375 82.5625 C-59.8599028 79.97804922 -59.8599028 79.97804922 -58.4375 77.5625 C-65.4460664 73.92278557 -75.77497358 69.10817753 -82.4375 75.5625 Z " fill="#2EC586" transform="translate(91.4375,2.4375)"/>
</svg>
